<svg width="136" height="136" viewBox="0 0 136 136" fill="none" xmlns="http://www.w3.org/2000/svg">
<path d="M68 12.2453C86.1688 12.2453 88.3203 12.325 95.4656 12.6437C102.106 12.9359 105.692 14.0516 108.083 14.9813C111.244 16.2031 113.528 17.6906 115.892 20.0547C118.283 22.4453 119.744 24.7031 120.966 27.8641C121.895 30.2547 123.011 33.8672 123.303 40.4812C123.622 47.6531 123.702 49.8047 123.702 67.9469C123.702 86.1156 123.622 88.2672 123.303 95.4125C123.011 102.053 121.895 105.639 120.966 108.03C119.744 111.191 118.256 113.475 115.892 115.839C113.502 118.23 111.244 119.691 108.083 120.913C105.692 121.842 102.08 122.958 95.4656 123.25C88.2938 123.569 86.1422 123.648 68 123.648C49.8313 123.648 47.6797 123.569 40.5344 123.25C33.8938 122.958 30.3078 121.842 27.9172 120.913C24.7563 119.691 22.4719 118.203 20.1078 115.839C17.7172 113.448 16.2562 111.191 15.0344 108.03C14.1047 105.639 12.9891 102.027 12.6969 95.4125C12.3781 88.2406 12.2984 86.0891 12.2984 67.9469C12.2984 49.7781 12.3781 47.6266 12.6969 40.4812C12.9891 33.8406 14.1047 30.2547 15.0344 27.8641C16.2562 24.7031 17.7437 22.4187 20.1078 20.0547C22.4984 17.6641 24.7563 16.2031 27.9172 14.9813C30.3078 14.0516 33.9203 12.9359 40.5344 12.6437C47.6797 12.325 49.8313 12.2453 68 12.2453ZM68 0C49.5391 0 47.2281 0.0796875 39.9766 0.398437C32.7516 0.717187 27.7844 1.88594 23.4813 3.55937C18.9922 5.3125 15.1938 7.62344 11.4219 11.4219C7.62344 15.1937 5.3125 18.9922 3.55937 23.4547C1.88594 27.7844 0.717188 32.725 0.398438 39.95C0.0796875 47.2281 0 49.5391 0 68C0 86.4609 0.0796875 88.7719 0.398438 96.0234C0.717188 103.248 1.88594 108.216 3.55937 112.519C5.3125 117.008 7.62344 120.806 11.4219 124.578C15.1938 128.35 18.9922 130.687 23.4547 132.414C27.7844 134.087 32.725 135.256 39.95 135.575C47.2016 135.894 49.5125 135.973 67.9734 135.973C86.4344 135.973 88.7453 135.894 95.9969 135.575C103.222 135.256 108.189 134.087 112.492 132.414C116.955 130.687 120.753 128.35 124.525 124.578C128.297 120.806 130.634 117.008 132.361 112.545C134.034 108.216 135.203 103.275 135.522 96.05C135.841 88.7984 135.92 86.4875 135.92 68.0266C135.92 49.5656 135.841 47.2547 135.522 40.0031C135.203 32.7781 134.034 27.8109 132.361 23.5078C130.687 18.9922 128.377 15.1937 124.578 11.4219C120.806 7.65 117.008 5.3125 112.545 3.58594C108.216 1.9125 103.275 0.74375 96.05 0.425C88.7719 0.0796875 86.4609 0 68 0Z" fill="#C8A27B"/>
<path d="M68 33.0703C48.7156 33.0703 33.0703 48.7156 33.0703 68C33.0703 87.2844 48.7156 102.93 68 102.93C87.2844 102.93 102.93 87.2844 102.93 68C102.93 48.7156 87.2844 33.0703 68 33.0703ZM68 90.6578C55.4891 90.6578 45.3422 80.5109 45.3422 68C45.3422 55.4891 55.4891 45.3422 68 45.3422C80.5109 45.3422 90.6578 55.4891 90.6578 68C90.6578 80.5109 80.5109 90.6578 68 90.6578Z" fill="#C8A27B"/>
<path d="M112.466 31.6891C112.466 36.2048 108.8 39.8438 104.311 39.8438C99.7953 39.8438 96.1562 36.1782 96.1562 31.6891C96.1562 27.1735 99.8219 23.5344 104.311 23.5344C108.8 23.5344 112.466 27.2001 112.466 31.6891Z" fill="#C8A27B"/>
</svg>
